<svg width="48" height="22" viewBox="0 0 48 22" fill="none" xmlns="http://www.w3.org/2000/svg">
<path fill-rule="evenodd" clip-rule="evenodd" d="M4.43237 0.625378V17.7721H4.8234C10.1856 17.7721 15.5471 17.7701 20.9092 17.774C22.0515 17.7747 23.1045 17.4742 24.086 16.9028C24.8792 16.4409 25.5707 15.8504 26.232 15.2193L34.479 7.35022C36.4761 5.44364 38.4732 3.53773 40.4637 1.62393C40.6337 1.46057 40.7787 1.43433 40.9945 1.5065C44.4278 2.65661 46.461 5.0618 47.1919 8.5515C47.6819 10.8891 47.5448 13.2123 46.5686 15.4345C45.217 18.5108 42.8151 20.2429 39.538 20.7684C38.7485 20.8952 37.9376 20.9068 37.1311 20.9128L36.648 20.9167C34.7696 20.935 32.8912 20.9167 31.0129 20.9121L30.8998 20.9054C30.8561 20.9014 30.8033 20.896 30.7321 20.8904L33.1104 18.6079C33.4988 18.2366 33.8957 17.8738 34.2782 17.4952C34.4252 17.3496 34.5793 17.2918 34.786 17.2938L36.3038 17.3098C36.8097 17.3127 37.3155 17.3102 37.821 17.2938C39.0328 17.2551 40.1947 16.9966 41.2031 16.2756C42.6019 15.275 43.3636 13.875 43.6247 12.2085C43.9469 10.1523 43.525 8.25823 42.2247 6.599C41.9963 6.3077 41.7201 6.05314 41.4498 5.76447L41.2738 5.91673C41.2483 5.9392 41.2241 5.96107 41.2005 5.9836L32.711 14.0603C31.2971 15.4076 29.8844 16.756 28.4738 18.1067C27.2463 19.2824 25.9092 20.2613 24.2848 20.811C23.1438 21.1968 21.9734 21.4009 20.7682 21.4009H0.529999V0.625378H4.43237ZM25.3292 1.83782C26.0962 2.26361 26.7838 2.83178 27.5055 3.33828C27.6236 3.42094 27.7285 3.52198 27.8716 3.64073L25.37 6.06374L25.1131 5.84834C23.6383 4.66418 21.9631 4.15105 20.0826 4.21611C17.0088 4.32306 14.5898 6.29458 13.8832 9.28435C13.464 11.0578 13.6381 12.7574 14.417 14.3794L14.6312 14.804C14.6377 14.8191 14.6325 14.8387 14.6325 14.8755C14.5649 14.882 14.4967 14.8945 14.4278 14.8952C13.2331 14.8965 12.039 14.8938 10.8443 14.8991C10.6789 14.8998 10.5792 14.8689 10.5267 14.6878C9.50257 11.1424 9.82537 7.77864 11.9452 4.69112C13.3354 2.66579 15.3233 1.48156 17.6885 0.936361C20.3338 0.326861 22.9162 0.498098 25.3292 1.83782ZM36.8677 1.05183L36.9032 1.11416L29.683 7.92166V1.05183H36.8677Z" fill="white"/>
</svg>
