<svg width="66" height="40" viewBox="0 0 66 40" fill="none" xmlns="http://www.w3.org/2000/svg">
<path fill-rule="evenodd" clip-rule="evenodd" d="M0 28.7088V11.2912C0 5.06495 5.06495 0 11.2912 0H28V2H11.2548C6.15444 2 2 6.19079 2 11.2912V28.7088C2 33.8092 6.19079 38 11.2912 38H28V40H11.2912C5.06495 40 0 34.9344 0 28.7088ZM66 28.7088V11.2912C66 5.06495 60.935 0 54.7088 0H38V2H54.7452C59.8456 2 64 6.19079 64 11.2912V28.7088C64 33.8092 59.8092 38 54.7088 38H38V40H54.7088C60.935 40 66 34.9344 66 28.7088Z" fill="#3498DB"/>
</svg>
